<svg width="512" height="512" viewBox="0 0 512 512" fill="none" xmlns="http://www.w3.org/2000/svg">
<g clip-path="url(#clip0_2159_13368)">
<rect width="512" height="512" fill="white"/>
<rect width="512" height="512" rx="42" fill="#FF7A00"/>
<rect width="512" height="512" fill="#FF7A00"/>
<mask id="mask0_2159_13368" style="mask-type:alpha" maskUnits="userSpaceOnUse" x="0" y="0" width="512" height="512">
<rect width="512" height="512" fill="#FF7A00"/>
</mask>
<g mask="url(#mask0_2159_13368)">
<path d="M319.584 -29.0262C344.947 -62.3246 395.053 -62.3246 420.416 -29.0262L457.747 19.9829C470.035 36.1145 489.3 45.3921 509.573 44.941L571.165 43.5706C613.013 42.6395 644.253 81.8135 634.033 122.405L618.992 182.148C614.041 201.812 618.799 222.659 631.792 238.228L671.265 285.528C698.085 317.666 686.935 366.515 648.828 383.833L592.741 409.322C574.279 417.712 560.947 434.43 556.876 454.295L544.506 514.648C536.102 555.654 490.959 577.394 453.659 558.398L398.761 530.439C380.691 521.236 359.309 521.236 341.239 530.439L286.341 558.398C249.041 577.394 203.898 555.654 195.494 514.648L183.124 454.295C179.053 434.43 165.721 417.712 147.259 409.322L91.1722 383.833C53.0646 366.515 41.9152 317.666 68.7348 285.528L108.208 238.228C121.201 222.659 125.959 201.812 121.008 182.148L105.967 122.405C95.7469 81.8135 126.987 42.6395 168.835 43.5706L230.427 44.941C250.7 45.3921 269.965 36.1145 282.253 19.9829L319.584 -29.0262Z" fill="#FFB700"/>
<path d="M534 21C534 49.1665 511.167 72 483 72C454.833 72 432 49.1665 432 21C432 -7.16652 454.833 -30 483 -30C511.167 -30 534 -7.16652 534 21Z" fill="#FFB700"/>
<ellipse cx="370" cy="268.48" rx="221.431" ry="214.288" transform="rotate(-15 370 268.48)" fill="#FFEB74"/>
<path d="M360.06 306.731C360.06 339.407 334.147 365.896 302.181 365.896C270.215 365.896 244.302 339.407 244.302 306.731C244.302 274.055 270.215 247.566 302.181 247.566C334.147 247.566 360.06 274.055 360.06 306.731Z" fill="white"/>
<mask id="path-7-inside-1_2159_13368" fill="white">
<path fill-rule="evenodd" clip-rule="evenodd" d="M334.235 343.25C325.718 351.127 314.452 355.896 302.181 355.896C275.944 355.896 254.302 334.093 254.302 306.731C254.302 287.104 265.437 270.337 281.417 262.426C270.464 273.53 265.874 291.374 270.905 309.415C278.162 335.44 302.691 352.022 325.693 346.453C328.726 345.719 331.58 344.636 334.235 343.25ZM360.06 306.731C360.06 339.407 334.147 365.896 302.181 365.896C270.215 365.896 244.302 339.407 244.302 306.731C244.302 274.055 270.215 247.566 302.181 247.566C334.147 247.566 360.06 274.055 360.06 306.731Z"/>
</mask>
<path fill-rule="evenodd" clip-rule="evenodd" d="M334.235 343.25C325.718 351.127 314.452 355.896 302.181 355.896C275.944 355.896 254.302 334.093 254.302 306.731C254.302 287.104 265.437 270.337 281.417 262.426C270.464 273.53 265.874 291.374 270.905 309.415C278.162 335.44 302.691 352.022 325.693 346.453C328.726 345.719 331.58 344.636 334.235 343.25ZM360.06 306.731C360.06 339.407 334.147 365.896 302.181 365.896C270.215 365.896 244.302 339.407 244.302 306.731C244.302 274.055 270.215 247.566 302.181 247.566C334.147 247.566 360.06 274.055 360.06 306.731Z" fill="#111111"/>
<path d="M302.181 355.896L302.181 357.182L302.181 355.896ZM334.235 343.25L335.108 344.194L333.64 342.11L334.235 343.25ZM254.302 306.731L255.588 306.731L254.302 306.731ZM281.417 262.426L282.333 263.329L280.846 261.273L281.417 262.426ZM270.905 309.415L269.666 309.76L270.905 309.415ZM325.693 346.453L325.995 347.703L325.693 346.453ZM302.181 365.896L302.181 364.61L302.181 365.896ZM360.06 306.731L361.346 306.731L360.06 306.731ZM244.302 306.731L243.015 306.731L244.302 306.731ZM302.181 247.566L302.181 248.852L302.181 247.566ZM302.181 357.182C314.792 357.182 326.366 352.279 335.108 344.194L333.362 342.305C325.07 349.974 314.112 354.61 302.181 354.61L302.181 357.182ZM253.015 306.731C253.015 334.778 275.209 357.182 302.181 357.182L302.181 354.61C276.679 354.61 255.588 333.407 255.588 306.731L253.015 306.731ZM280.846 261.273C264.436 269.398 253.015 286.607 253.015 306.731L255.588 306.731C255.588 287.601 266.439 271.276 281.988 263.578L280.846 261.273ZM272.144 309.069C267.223 291.425 271.737 274.072 282.333 263.329L280.501 261.522C269.191 272.989 264.524 291.323 269.666 309.76L272.144 309.069ZM325.39 345.203C303.205 350.575 279.257 334.578 272.144 309.069L269.666 309.76C277.067 336.302 302.177 353.47 325.995 347.703L325.39 345.203ZM333.64 342.11C331.077 343.448 328.321 344.493 325.39 345.203L325.995 347.703C329.13 346.944 332.084 345.824 334.83 344.39L333.64 342.11ZM302.181 367.182C334.883 367.182 361.346 340.091 361.346 306.731L358.774 306.731C358.774 338.723 333.41 364.61 302.181 364.61L302.181 367.182ZM243.015 306.731C243.015 340.091 269.478 367.182 302.181 367.182L302.181 364.61C270.952 364.61 245.588 338.723 245.588 306.731L243.015 306.731ZM302.181 246.279C269.478 246.279 243.015 273.371 243.015 306.731L245.588 306.731C245.588 274.738 270.952 248.852 302.181 248.852L302.181 246.279ZM361.346 306.731C361.346 273.371 334.883 246.279 302.181 246.279L302.181 248.852C333.41 248.852 358.774 274.738 358.774 306.731L361.346 306.731Z" fill="#111111" mask="url(#path-7-inside-1_2159_13368)"/>
<path d="M477.341 259.105C477.341 291.781 451.428 318.27 419.462 318.27C387.496 318.27 361.583 291.781 361.583 259.105C361.583 226.429 387.496 199.94 419.462 199.94C451.428 199.94 477.341 226.429 477.341 259.105Z" fill="white"/>
<mask id="path-10-inside-2_2159_13368" fill="white">
<path fill-rule="evenodd" clip-rule="evenodd" d="M451.516 295.624C442.999 303.501 431.733 308.27 419.462 308.27C393.225 308.27 371.583 286.467 371.583 259.105C371.583 239.478 382.719 222.711 398.698 214.8C387.745 225.905 383.155 243.748 388.186 261.789C395.443 287.814 419.973 304.396 442.974 298.827C446.007 298.093 448.862 297.01 451.516 295.624ZM477.341 259.105C477.341 291.781 451.428 318.27 419.462 318.27C387.496 318.27 361.583 291.781 361.583 259.105C361.583 226.429 387.496 199.94 419.462 199.94C451.428 199.94 477.341 226.429 477.341 259.105Z"/>
</mask>
<path fill-rule="evenodd" clip-rule="evenodd" d="M451.516 295.624C442.999 303.501 431.733 308.27 419.462 308.27C393.225 308.27 371.583 286.467 371.583 259.105C371.583 239.478 382.719 222.711 398.698 214.8C387.745 225.905 383.155 243.748 388.186 261.789C395.443 287.814 419.973 304.396 442.974 298.827C446.007 298.093 448.862 297.01 451.516 295.624ZM477.341 259.105C477.341 291.781 451.428 318.27 419.462 318.27C387.496 318.27 361.583 291.781 361.583 259.105C361.583 226.429 387.496 199.94 419.462 199.94C451.428 199.94 477.341 226.429 477.341 259.105Z" fill="#111111"/>
<path d="M419.462 308.27L419.462 309.557L419.462 308.27ZM451.516 295.624L452.39 296.568L450.921 294.484L451.516 295.624ZM371.583 259.105L372.869 259.105L371.583 259.105ZM398.698 214.8L399.614 215.703L398.128 213.647L398.698 214.8ZM388.186 261.789L386.947 262.134L388.186 261.789ZM442.974 298.827L443.277 300.077L442.974 298.827ZM419.462 318.27L419.462 316.984L419.462 318.27ZM477.341 259.105L478.627 259.105L477.341 259.105ZM361.583 259.105L360.297 259.105L361.583 259.105ZM419.462 199.94L419.462 201.226L419.462 199.94ZM419.462 309.557C432.073 309.557 443.647 304.653 452.39 296.568L450.643 294.679C442.351 302.348 431.393 306.984 419.462 306.984L419.462 309.557ZM370.297 259.105C370.297 287.152 392.49 309.557 419.462 309.557L419.462 306.984C393.96 306.984 372.869 285.781 372.869 259.105L370.297 259.105ZM398.128 213.647C381.717 221.772 370.297 238.981 370.297 259.105L372.869 259.105C372.869 239.975 383.72 223.65 399.269 215.952L398.128 213.647ZM389.425 261.444C384.505 243.799 389.018 226.446 399.614 215.703L397.782 213.896C386.473 225.363 381.806 243.697 386.947 262.134L389.425 261.444ZM442.671 297.577C420.486 302.949 396.538 286.952 389.425 261.444L386.947 262.134C394.348 288.676 419.459 305.844 443.277 300.077L442.671 297.577ZM450.921 294.484C448.359 295.822 445.602 296.868 442.671 297.577L443.277 300.077C446.412 299.318 449.365 298.198 452.112 296.764L450.921 294.484ZM419.462 319.557C452.165 319.557 478.627 292.465 478.627 259.105L476.055 259.105C476.055 291.098 450.691 316.984 419.462 316.984L419.462 319.557ZM360.297 259.105C360.297 292.465 386.759 319.557 419.462 319.557L419.462 316.984C388.233 316.984 362.869 291.098 362.869 259.105L360.297 259.105ZM419.462 198.653C386.759 198.653 360.297 225.745 360.297 259.105L362.869 259.105C362.869 227.112 388.233 201.226 419.462 201.226L419.462 198.653ZM478.627 259.105C478.627 225.745 452.165 198.653 419.462 198.653L419.462 201.226C450.691 201.226 476.055 227.112 476.055 259.105L478.627 259.105Z" fill="#111111" mask="url(#path-10-inside-2_2159_13368)"/>
<path fill-rule="evenodd" clip-rule="evenodd" d="M423.783 337.686C427.039 338.3 429.181 341.438 428.566 344.694C425.766 359.535 413.263 372.149 396.668 376.596C385.452 379.601 374.103 378.44 364.872 373.919C361.896 372.461 360.665 368.867 362.123 365.891C363.58 362.915 367.174 361.684 370.15 363.142C376.655 366.327 385.013 367.295 393.562 365.004C406.373 361.572 414.951 352.134 416.774 342.469C417.389 339.213 420.527 337.072 423.783 337.686Z" fill="#111111"/>
<path d="M289.865 220.275C293.863 227.739 292.444 237.643 271.024 247.756C249.603 257.868 241.705 255.669 237.707 248.205C233.71 240.74 237.477 229.795 256.549 220.724C275.621 211.653 285.868 212.81 289.865 220.275Z" fill="#FFB700"/>
<path d="M406.959 170.257C410.956 177.722 409.538 187.625 388.118 197.738C366.697 207.851 358.798 205.652 354.801 198.187C350.804 190.723 354.571 179.778 373.643 170.707C392.715 161.635 402.962 162.793 406.959 170.257Z" fill="#FFB700"/>
<path d="M248.867 213C245.398 208.59 246.166 202.215 250.681 197.955Lnan nanL250.681 197.955C262.314 186.977 277.739 180.219 293.695 179.109Lnan nanL293.695 179.109C299.888 178.678 305.096 182.435 305.986 187.974L306.599 191.789C307.831 199.452 304.424 207.51 297.674 212.904Lnan nanL297.674 212.904C290.522 218.618 281.878 222.405 272.828 223.789Lnan nanL272.828 223.789C264.287 225.096 256.053 222.137 251.255 216.037L248.867 213Z" fill="#595857"/>
<path d="M248.867 213C245.398 208.59 246.166 202.215 250.681 197.955Lnan nanL250.681 197.955C262.314 186.977 277.739 180.219 293.695 179.109Lnan nanL293.695 179.109C299.888 178.678 305.096 182.435 305.986 187.974L306.599 191.789C307.831 199.452 304.424 207.51 297.674 212.904Lnan nanL297.674 212.904C290.522 218.618 281.878 222.405 272.828 223.789Lnan nanL272.828 223.789C264.287 225.096 256.053 222.137 251.255 216.037L248.867 213Z" fill="#3C3C3C"/>
<path d="M248.867 213L251.255 216.037C254.968 220.758 261.605 217.546 263.24 211.766L264.284 208.076C266.934 198.71 257.761 191.274 250.681 197.955C246.166 202.215 245.398 208.59 248.867 213Z" fill="#595857"/>
<path d="M382.97 154.214C382.08 148.674 376.872 144.917 370.679 145.348Lnan nanL370.679 145.348C354.723 146.459 339.298 153.217 327.665 164.194Lnan nanL327.665 164.194C323.15 168.454 322.382 174.83 325.851 179.24L328.239 182.277C333.037 188.377 341.271 191.335 349.812 190.029Lnan nanL349.812 190.029C358.861 188.645 367.506 184.858 374.658 179.143Lnan nanL374.658 179.143C381.408 173.75 384.815 165.691 383.583 158.029L382.97 154.214Z" fill="#3C3C3C"/>
<path d="M325.931 179.237L328.32 182.273C332.033 186.994 338.669 183.782 340.304 178.003L341.349 174.312C343.999 164.946 334.825 157.511 327.745 164.191C323.231 168.451 322.462 174.827 325.931 179.237Z" fill="#595857"/>
<path fill-rule="evenodd" clip-rule="evenodd" d="M322.886 186.038L320.497 183.002C319.451 181.672 318.555 180.135 317.063 179.337C315.991 178.764 314.857 178.565 313.727 179.06C313.318 179.24 312.971 179.483 312.679 179.777C310.996 181.475 312.003 184.229 312.382 186.589L312.995 190.403C314.56 200.141 310.232 210.382 301.653 217.236C293.497 223.752 283.639 228.071 273.319 229.65C262.465 231.31 252.002 227.55 245.904 219.798L243.516 216.762C241.977 214.805 240.989 212.593 240.535 210.281C240.476 209.981 240.189 209.779 239.887 209.825C237.062 210.253 234.341 209.271 232.757 207.251L232.639 207.101C231.158 205.213 231.773 202.429 234 200.932L255.158 186.714C255.588 186.425 256.03 186.156 256.482 185.907C267.56 178.573 280.51 174.106 293.795 173.181C295.803 173.041 297.827 173.095 299.82 172.815C303.425 172.31 306.829 171.591 309.871 170.259C313.748 168.56 316.364 166.159 319.559 163.225C321.725 161.236 324.158 159.003 327.429 156.579C336.308 149.362 346.789 144.174 357.89 141.445C358.38 141.281 358.878 141.139 359.381 141.018L374.535 137.403C377.416 136.716 380.198 135.646 382.9 134.432C386.887 132.642 392.847 130.144 398.798 127.65C403.83 125.541 408.857 123.435 412.677 121.761C412.68 121.759 412.684 121.761 412.686 121.764C412.688 121.767 412.692 121.769 412.696 121.767C416.881 119.938 423.386 118.886 424.094 125.053C424.352 127.295 423.327 129.472 421.505 131.106C416.131 135.927 407.527 135.343 401.045 138.521L386.52 145.645C386.46 145.675 386.402 145.71 386.349 145.751C386.313 145.778 386.306 145.83 386.334 145.865C387.881 147.848 388.942 150.206 389.364 152.829L389.977 156.644C391.542 166.381 387.213 176.622 378.634 183.476C370.478 189.992 360.62 194.311 350.3 195.89C339.446 197.55 328.983 193.79 322.886 186.038ZM380.191 148.725C377.903 146.394 374.476 145.084 370.679 145.348C354.722 146.458 339.297 153.217 327.664 164.194C323.15 168.454 322.381 174.829 325.85 179.24L328.238 182.276C333.036 188.376 341.27 191.335 349.811 190.028C358.861 188.644 367.505 184.857 374.657 179.143C381.407 173.749 384.814 165.691 383.582 158.028L382.969 154.214C382.625 152.071 381.634 150.195 380.191 148.725ZM266.813 186.609C272.184 183.87 277.904 181.818 283.798 180.53C287.055 179.818 290.364 179.34 293.697 179.108C299.493 178.704 304.427 181.97 305.765 186.933C305.845 187.23 305.912 187.532 305.966 187.841C305.973 187.885 305.981 187.929 305.988 187.974L306.601 191.788C307.679 198.493 305.205 205.501 300.048 210.761C299.311 211.513 298.519 212.229 297.675 212.903C291.417 217.903 284.017 221.427 276.202 223.157C275.086 223.405 273.961 223.615 272.83 223.788C264.289 225.095 256.055 222.136 251.257 216.036L248.868 212.999C247.527 211.294 246.819 209.294 246.717 207.236C246.555 203.974 247.914 200.566 250.683 197.954C255.489 193.419 260.942 189.604 266.813 186.609Z" fill="black"/>
</g>
</g>
<defs>
<clipPath id="clip0_2159_13368">
<rect width="512" height="512" fill="white"/>
</clipPath>
</defs>
</svg>
